<?xml version="1.0" encoding="utf-8"?>
<!-- Generator: Adobe Illustrator 21.1.0, SVG Export Plug-In . SVG Version: 6.00 Build 0)  -->
<svg version="1.1" id="Layer_1" xmlns="http://www.w3.org/2000/svg" xmlns:xlink="http://www.w3.org/1999/xlink" x="0px" y="0px"
	 viewBox="0 0 136.2 79.8" style="enable-background:new 0 0 136.2 79.8;" xml:space="preserve">
<style type="text/css">
	.st0{fill:#B68554;}
	.st1{fill:#845431;}
	.st2{fill:#A97642;}
</style>
<title>ark</title>
<g>
	<path class="st0" d="M132.8,36.2l-1.5,0.3c-19.5,4.3-61.8,5.9-63.2,5.9c-1.4,0-43.7-1.6-63.2-5.9l-1.5-0.3c-0.5-0.1-1-0.2-1.5-0.4
		c0,3.5,0.4,7,1.3,10.3c0.5,1.8,1.1,3.6,1.9,5.4c1.7,3.8,3.9,7.3,6.8,10.4c1.9,2,3.9,3.9,6.2,5.5c8,5.9,20.1,10.5,37.8,11.9V58.6H56
		h12.1h0h12.1h0.1l0,20.7c17.7-1.4,29.8-6,37.8-11.9c2.3-1.6,4.3-3.5,6.2-5.5c2.9-3.1,5.1-6.6,6.8-10.4c0.8-1.8,1.4-3.6,1.9-5.4
		c0.9-3.3,1.3-6.8,1.3-10.3C133.8,36,133.3,36.1,132.8,36.2z"/>
	<path class="st1" d="M68.1,58.6L68.1,58.6H56v20.7h0.2l1.2,0.1l1.9,0.1c2.8,0.2,5.7,0.3,8.7,0.3v0c0,0,0,0,0,0s0,0,0,0v0
		c3.1,0,6-0.1,8.7-0.3l1.9-0.1l1.2-0.1h0.2l0-20.7H68.1z"/>
	<path class="st2" d="M135.8,30.2c-5.6,1.7-14.8,3-24.8,3.8c-0.5,0-0.9,0.1-1.3,0.1c-18.9,1.5-39.8,1.6-41.6,1.6
		c-1.8,0-22.6-0.1-41.6-1.6c-0.4,0-0.8-0.1-1.3-0.1c-10-0.8-19.2-2.1-24.8-3.8C0.1,31.9,0,33.6,0,35.3c0.6,0.2,1.3,0.3,2,0.5
		c0.5,0.1,1,0.2,1.5,0.4L5,36.5c19.1,4.1,60.2,5.8,63.1,5.9v0c0,0,0,0,0,0c0,0,0,0,0,0v0c2.9-0.1,43.9-1.8,63.1-5.9l1.5-0.3
		c0.5-0.2,1-0.3,1.5-0.4c0.7-0.2,1.4-0.3,2-0.5C136.2,33.6,136.1,31.9,135.8,30.2z"/>
	<path class="st0" d="M109.7,15.1H68.1h0H26.5v19c18.9,1.5,39.6,1.6,41.6,1.6v0c0,0,0,0,0,0s0,0,0,0v0c1.9,0,22.7-0.1,41.6-1.6V15.1
		z M40,28.6h-7.5v-7.5H40V28.6z M56,26.2v2.4h-7.5v-7.5H56V26.2z M71.8,28.6L71.8,28.6h-3.7h0h-3.6h-0.1v-7.5h0.1h3.6h0h3.6h0.1
		V28.6z M87.7,28.6h-7.5v-2.4v-5.1h7.5V28.6z M103.7,28.6h-7.5v-7.5h7.5V28.6z"/>
	<polygon class="st2" points="101.8,0 68.1,0 68.1,0 34.4,0 21.5,15.1 26.5,15.1 68.1,15.1 68.1,15.1 109.7,15.1 114.7,15.1 	"/>
	<polygon class="st1" points="68.1,21.1 68,21.1 64.4,21.1 64.4,28.6 68,28.6 68.1,28.6 71.8,28.6 71.8,21.1 	"/>
	<polygon class="st1" points="87.7,28.6 80.2,28.6 80.2,26.2 80.2,21.1 87.7,21.1 	"/>
	<rect x="96.2" y="21.1" class="st1" width="7.5" height="7.5"/>
	<polygon class="st1" points="48.5,28.6 56,28.6 56,26.2 56,21.1 48.5,21.1 	"/>
	<rect x="32.5" y="21.1" class="st1" width="7.5" height="7.5"/>
</g>
</svg>
