<svg id="Layer_1" data-name="Layer 1" xmlns="http://www.w3.org/2000/svg" viewBox="0 0 132.37 79.83"><defs><style>.cls-1{fill:#b68554;}.cls-2{fill:#a97642;}.cls-3{fill:#845431;}</style></defs><title>ark</title><path class="cls-1" d="M107.92,34.56V15H24.45V34.56c19.24,1.59,41,1.68,41.74,1.69S88.68,36.15,107.92,34.56ZM94.33,21.13h7.5v7.5h-7.5Zm-15.95,0h7.5v7.5h-7.5ZM38,28.63h-7.5v-7.5H38Zm15.95,0h-7.5v-7.5H54Zm8.45-7.5h7.5v7.5h-7.5Z" transform="translate(0)"/><polygon class="cls-2" points="107.92 15.05 112.85 15.05 100.03 0 66.19 0 32.34 0 19.52 15.05 24.45 15.05 66.19 15.05 107.92 15.05"/><rect class="cls-3" x="30.54" y="21.13" width="7.5" height="7.5"/><rect class="cls-3" x="46.49" y="21.13" width="7.5" height="7.5"/><rect class="cls-3" x="78.38" y="21.13" width="7.5" height="7.5"/><rect class="cls-3" x="94.33" y="21.13" width="7.5" height="7.5"/><rect class="cls-3" x="62.44" y="21.13" width="7.5" height="7.5"/><path class="cls-2" d="M66.21,41.38c1.09,0,48.23-.84,66.16-5.57a29.72,29.72,0,0,0-.37-4.93c-5.4,1.72-14.42,2.89-24.08,3.69-19.24,1.59-41,1.68-41.74,1.69s-22.5-.1-41.74-1.69c-9.66-.8-18.68-2-24.08-3.69A29.7,29.7,0,0,0,0,35.79C17.89,40.54,65.12,41.37,66.21,41.38Z" transform="translate(0)"/><path class="cls-1" d="M66.21,41.38c-1.1,0-48.32-.84-66.21-5.58A40.36,40.36,0,0,0,1.32,46.15a38.06,38.06,0,0,0,1.85,5.37A37.08,37.08,0,0,0,9.94,61.93a41.28,41.28,0,0,0,6.15,5.47C24.14,73.26,36.17,77.89,54,79.34V58.63h24.4V79.34c17.81-1.45,29.83-6.07,37.88-11.93a41.29,41.29,0,0,0,6.16-5.47,37.08,37.08,0,0,0,6.76-10.39A38,38,0,0,0,131,46.17a40.36,40.36,0,0,0,1.33-10.36C114.44,40.54,67.31,41.37,66.21,41.38Z" transform="translate(0)"/><path class="cls-3" d="M54,58.63V79.34l.33,0,1.19.08,1.9.13v0c2.78.17,5.68.27,8.74.27h.05c3.08,0,6-.1,8.8-.27v0l1.85-.12L78,79.37l.35,0V58.63Z" transform="translate(0)"/></svg>