<svg id="Layer_1" data-name="Layer 1" xmlns="http://www.w3.org/2000/svg" viewBox="0 0 270.08 188.17"><defs><style>.cls-1,.cls-2{fill:#a37c54;}.cls-2{stroke:#89633e;stroke-miterlimit:10;stroke-width:4.75px;}.cls-3{fill:#89633e;}</style></defs><title>ark</title><rect class="cls-1" x="63.04" y="38.48" width="143.14" height="46.91"/><path class="cls-2" d="M2.68,86.08c0,.19,0,.38,0,.57,0,54.75,59.4,99.14,132.67,99.14S268,141.41,268,86.66c0-.19,0-.38,0-.57Z" transform="translate(-0.29)"/><path class="cls-1" d="M41.67,156.86H229a114.49,114.49,0,0,0,14.1-12.38H27.56A114.5,114.5,0,0,0,41.67,156.86Z" transform="translate(-0.29)"/><path class="cls-1" d="M14.52,127.67H256.15a84.66,84.66,0,0,0,6.23-12.38H8.29A84.66,84.66,0,0,0,14.52,127.67Z" transform="translate(-0.29)"/><path class="cls-1" d="M25.49,142.26H245.18a97.07,97.07,0,0,0,9.58-12.38H15.91A97.07,97.07,0,0,0,25.49,142.26Z" transform="translate(-0.29)"/><path class="cls-1" d="M66.58,171.46h137.5a136.75,136.75,0,0,0,21.84-12.38H44.75A136.75,136.75,0,0,0,66.58,171.46Z" transform="translate(-0.29)"/><path class="cls-1" d="M135.33,185.8a168.43,168.43,0,0,0,63.61-12.12H71.73A168.43,168.43,0,0,0,135.33,185.8Z" transform="translate(-0.29)"/><path class="cls-1" d="M4,100.68a77.38,77.38,0,0,0,3.44,12.38h255.8a77.38,77.38,0,0,0,3.44-12.38Z" transform="translate(-0.29)"/><path class="cls-1" d="M268,86.66c0-.19,0-.38,0-.57H2.68c0,.19,0,.38,0,.57a75.19,75.19,0,0,0,.94,11.81H267.06A75.19,75.19,0,0,0,268,86.66Z" transform="translate(-0.29)"/><path class="cls-3" d="M267.06,98.47H3.61q.18,1.11.39,2.21H266.67Q266.88,99.58,267.06,98.47Z" transform="translate(-0.29)"/><path class="cls-3" d="M8.29,115.28H262.38q.44-1.1.86-2.21H7.43Q7.85,114.18,8.29,115.28Z" transform="translate(-0.29)"/><path class="cls-3" d="M15.91,129.88H254.76q.71-1.1,1.39-2.21H14.52Q15.2,128.78,15.91,129.88Z" transform="translate(-0.29)"/><path class="cls-3" d="M27.56,144.48H243.1q1.06-1.1,2.08-2.21H25.49Q26.51,143.38,27.56,144.48Z" transform="translate(-0.29)"/><path class="cls-3" d="M44.75,159.08H225.92c1-.73,2.07-1.46,3.08-2.21H41.67C42.68,157.62,43.7,158.35,44.75,159.08Z" transform="translate(-0.29)"/><path class="cls-3" d="M71.73,173.68H198.94q2.61-1.07,5.15-2.21H66.58Q69.12,172.61,71.73,173.68Z" transform="translate(-0.29)"/><rect class="cls-3" x="73.79" y="38.42" width="2.5" height="46.91"/><rect class="cls-3" x="87.04" y="38.48" width="2.5" height="46.91"/><rect class="cls-3" x="100.29" y="38.42" width="2.5" height="46.91"/><rect class="cls-3" x="113.54" y="38.21" width="2.5" height="46.91"/><rect class="cls-3" x="126.79" y="38.21" width="2.5" height="46.91"/><rect class="cls-3" x="139.98" y="37.63" width="2.5" height="46.91"/><rect class="cls-3" x="153.18" y="38.48" width="2.5" height="46.91"/><rect class="cls-3" x="166.43" y="38.21" width="2.5" height="46.91"/><rect class="cls-3" x="179.68" y="37.56" width="2.5" height="46.91"/><rect class="cls-3" x="192.93" y="38.63" width="2.5" height="46.91"/><polygon class="cls-3" points="197.03 0 72.19 0 67.9 7.77 201.28 7.77 197.03 0"/><polygon class="cls-3" points="56.54 28.35 212.56 28.35 208.3 20.58 60.83 20.58 56.54 28.35"/><polygon class="cls-3" points="50.88 38.6 218.18 38.6 213.93 30.85 55.16 30.85 50.88 38.6"/><polygon class="cls-3" points="66.52 10.27 62.21 18.08 206.93 18.08 202.66 10.27 66.52 10.27"/><polygon class="cls-1" points="201.28 7.77 67.9 7.77 66.52 10.27 202.66 10.27 201.28 7.77"/><polygon class="cls-1" points="55.16 30.85 213.93 30.85 212.56 28.35 56.54 28.35 55.16 30.85"/><polygon class="cls-1" points="60.83 20.58 208.3 20.58 206.93 18.08 62.21 18.08 60.83 20.58"/></svg>