<?xml version="1.0" encoding="utf-8"?>
<!-- Generator: Adobe Illustrator 21.1.0, SVG Export Plug-In . SVG Version: 6.00 Build 0)  -->
<svg version="1.1" id="Layer_1" xmlns="http://www.w3.org/2000/svg" xmlns:xlink="http://www.w3.org/1999/xlink" x="0px" y="0px"
	 viewBox="0 0 136.6 79.8" style="enable-background:new 0 0 136.6 79.8;" xml:space="preserve">
<style type="text/css">
	.st0{fill:none;}
	.st1{fill:#B68554;}
	.st2{fill:#A97642;}
	.st3{fill:#845431;}
</style>
<title>ark</title>
<g>
	<polygon class="st0" points="56.1,26.2 56.1,21.1 56.1,21.1 	"/>
	<rect x="48.6" y="21.1" class="st0" width="0" height="7.5"/>
	<rect x="64.5" y="21.1" class="st0" width="0" height="7.5"/>
	<rect x="40.1" y="21.1" class="st0" width="0" height="7.5"/>
	<rect x="103.9" y="21.1" class="st0" width="0" height="7.5"/>
	<rect x="88" y="21.1" class="st0" width="0" height="7.5"/>
	<path class="st1" d="M68.3,35.8c0.7,0,22.2-0.1,41.7-1.6V15.1H68.3H26.6v19.1C46.1,35.7,67.6,35.8,68.3,35.8z M96.4,21.1L96.4,21.1
		h7.5l0,0v7.5l0,0h-7.5l0,0V21.1z M80.5,21.1L80.5,21.1H88l0,0v7.5l0,0h-7.5l0,0V21.1z M40.1,28.6L40.1,28.6h-7.5l0,0v-7.5l0,0h7.5
		l0,0V28.6z M56.1,26.2v2.4l0,0h-7.5l0,0v-7.5l0,0h7.5l0,0V26.2z M64.5,28.6v-7.5l0,0H72l0,0v7.5l0,0H64.5L64.5,28.6z"/>
	<polygon class="st2" points="110,15.1 115,15.1 102.2,0 68.3,0 34.5,0 21.6,15.1 26.6,15.1 68.3,15.1 	"/>
	<polygon class="st3" points="72.1,28.6 72.1,21.1 72,21.1 64.6,21.1 64.6,28.6 72,28.6 	"/>
	<polygon class="st3" points="88,28.6 88,21.1 80.5,21.1 80.5,21.1 80.5,28.6 80.5,28.6 	"/>
	<polygon class="st3" points="48.6,21.1 48.6,28.6 56.1,28.6 56.1,28.6 56.1,26.2 56.1,21.1 	"/>
	<polygon class="st3" points="103.9,28.6 103.9,21.1 96.5,21.1 96.4,21.1 96.4,28.6 96.5,28.6 	"/>
	<polygon class="st3" points="32.6,21.1 32.6,21.1 32.6,28.6 32.6,28.6 40.1,28.6 40.1,21.1 	"/>
	<path class="st2" d="M136.1,30.2c-5.6,1.8-14.9,3-24.8,3.8c-0.4,0-0.8,0.1-1.3,0.1c-19.5,1.5-41,1.6-41.7,1.6s-22.2-0.1-41.7-1.6
		c-0.4,0-0.8-0.1-1.3-0.1c-10-0.8-19.2-2.1-24.8-3.8c-0.3,1.7-0.4,3.4-0.4,5.1c0.6,0.2,1.3,0.3,2,0.5l0,0c0.5,0.1,1,0.2,1.5,0.4
		c0.5,0.1,1,0.2,1.5,0.3c19.6,4.2,62.2,5.9,63.2,5.9c1.1,0,48.2-1.8,66.1-6.6c0,0,0,0,0,0.1c0.7-0.2,1.4-0.3,2-0.5
		C136.5,33.7,136.4,31.9,136.1,30.2z"/>
	<path class="st1" d="M68.4,42.4c-1,0-43.6-1.6-63.2-5.9c-0.5-0.1-1-0.2-1.5-0.3s-1-0.2-1.5-0.4l0,0c0,3.5,0.4,7,1.3,10.3
		c0.5,1.8,1.1,3.6,1.9,5.4c1.7,3.8,3.9,7.3,6.8,10.4c1.9,2,3.9,3.9,6.2,5.5c8,5.9,20.1,10.5,37.9,11.9V58.6l0,0h24.3h0.1v20.7
		c17.8-1.5,29.8-6.1,37.9-11.9c2.2-1.6,4.3-3.4,6.2-5.5c2.8-3.1,5.1-6.6,6.8-10.4c0.7-1.7,1.3-3.5,1.8-5.4c0.9-3.4,1.3-6.8,1.3-10.3
		c0,0,0,0,0-0.1C116.6,40.5,69.5,42.4,68.4,42.4z"/>
	<path class="st3" d="M56.4,58.6v20.7l0,0h0.3l1.2,0.1l1.9,0.1c2.8,0.2,5.7,0.3,8.8,0.3h0.1c3.1,0,6-0.1,8.9-0.3l1.8-0.1l1.1-0.1
		h0.3V58.6H56.4L56.4,58.6z"/>
</g>
</svg>
